<svg width="40" height="41" viewBox="0 0 40 41" fill="none" xmlns="http://www.w3.org/2000/svg">
<rect y="0.453125" width="40" height="40" rx="4" fill="#2E3192"/>
<g clip-path="url(#clip0_5_4606)">
<path d="M25.6246 24.2032C25.3575 24.204 25.0937 24.2623 24.8511 24.3741C24.6084 24.4859 24.3927 24.6485 24.2184 24.851L16.207 20.8451C16.2639 20.5869 16.2639 20.3195 16.207 20.0613L24.2184 16.0554C24.5174 16.3907 24.9283 16.6056 25.3742 16.66C25.8202 16.7144 26.2707 16.6045 26.6415 16.3509C27.0123 16.0972 27.278 15.7172 27.389 15.2819C27.4999 14.8465 27.4485 14.3857 27.2444 13.9855C27.0402 13.5853 26.6973 13.2731 26.2798 13.1074C25.8622 12.9417 25.3986 12.9337 24.9755 13.085C24.5525 13.2363 24.1991 13.5365 23.9813 13.9294C23.7636 14.3224 23.6964 14.7812 23.7923 15.2201L15.7809 19.226C15.5307 18.9369 15.198 18.7313 14.8276 18.6366C14.4572 18.5419 14.0667 18.5627 13.7085 18.6962C13.3502 18.8298 13.0413 19.0696 12.8232 19.3836C12.6052 19.6977 12.4883 20.0709 12.4883 20.4532C12.4883 20.8355 12.6052 21.2087 12.8232 21.5227C13.0413 21.8367 13.3502 22.0766 13.7085 22.2101C14.0667 22.3436 14.4572 22.3645 14.8276 22.2698C15.198 22.1751 15.5307 21.9694 15.7809 21.6804L23.7923 25.6863C23.7113 26.0655 23.7498 26.4604 23.9025 26.8168C24.0552 27.1732 24.3147 27.4734 24.6451 27.6762C24.9756 27.879 25.3608 27.9744 25.7477 27.9492C26.1346 27.924 26.5042 27.7795 26.8055 27.5356C27.1069 27.2917 27.3253 26.9603 27.4305 26.5871C27.5357 26.214 27.5227 25.8174 27.3932 25.4519C27.2637 25.0865 27.0241 24.7701 26.7074 24.5465C26.3906 24.3229 26.0124 24.2029 25.6246 24.2032ZM25.6246 13.8907C25.8101 13.8907 25.9913 13.9457 26.1455 14.0487C26.2997 14.1517 26.4198 14.2981 26.4908 14.4694C26.5617 14.6407 26.5803 14.8292 26.5441 15.0111C26.508 15.1929 26.4187 15.36 26.2876 15.4911C26.1564 15.6222 25.9894 15.7115 25.8075 15.7477C25.6257 15.7838 25.4372 15.7653 25.2659 15.6943C25.0946 15.6234 24.9482 15.5032 24.8451 15.349C24.7421 15.1949 24.6871 15.0136 24.6871 14.8282C24.6871 14.5795 24.7859 14.3411 24.9617 14.1653C25.1376 13.9895 25.376 13.8907 25.6246 13.8907ZM14.3746 21.3907C14.1892 21.3907 14.008 21.3357 13.8538 21.2327C13.6996 21.1297 13.5795 20.9833 13.5085 20.8119C13.4376 20.6406 13.419 20.4521 13.4552 20.2703C13.4913 20.0884 13.5806 19.9214 13.7117 19.7903C13.8428 19.6592 14.0099 19.5699 14.1918 19.5337C14.3736 19.4975 14.5621 19.5161 14.7334 19.587C14.9047 19.658 15.0511 19.7782 15.1542 19.9323C15.2572 20.0865 15.3121 20.2678 15.3121 20.4532C15.3121 20.7018 15.2134 20.9403 15.0376 21.1161C14.8617 21.2919 14.6233 21.3907 14.3746 21.3907ZM25.6246 27.0157C25.4392 27.0157 25.258 26.9607 25.1038 26.8577C24.9496 26.7547 24.8295 26.6083 24.7585 26.4369C24.6876 26.2656 24.669 26.0771 24.7052 25.8953C24.7413 25.7134 24.8306 25.5464 24.9617 25.4153C25.0928 25.2842 25.2599 25.1949 25.4418 25.1587C25.6236 25.1225 25.8121 25.1411 25.9834 25.212C26.1547 25.283 26.3011 25.4032 26.4042 25.5573C26.5072 25.7115 26.5621 25.8928 26.5621 26.0782C26.5621 26.3268 26.4634 26.5653 26.2876 26.7411C26.1117 26.9169 25.8733 27.0157 25.6246 27.0157Z" fill="white" stroke="white" stroke-width="0.46875"/>
</g>
<defs>
<clipPath id="clip0_5_4606">
<rect width="15" height="32" fill="white" transform="translate(12.5 4.45312)"/>
</clipPath>
</defs>
</svg>
